<svg width="36" height="36" fill="none" xmlns="http://www.w3.org/2000/svg"><path d="M24 20.984v1.807a1.202 1.202 0 01-.82 1.145c-.16.054-.328.074-.496.06a11.956 11.956 0 01-5.207-1.85 11.754 11.754 0 01-3.62-3.613 11.9 11.9 0 01-1.852-5.22 1.201 1.201 0 01.714-1.21 1.2 1.2 0 01.487-.103h1.81a1.208 1.208 0 011.206 1.036 7.71 7.71 0 00.423 1.692 1.201 1.201 0 01-.272 1.27l-.766.765a9.644 9.644 0 003.62 3.613l.766-.765a1.208 1.208 0 011.273-.27 7.755 7.755 0 001.696.42A1.208 1.208 0 0124 20.985z" fill="#7A8599"/><circle cx="18" cy="18" r="17.5" stroke="#C1C7D0"/><mask id="path-3-inside-1_35_1068" fill="#fff"><path d="M1.373 11.104a18 18 0 00-1.326 8.2l2.205-.16a15.789 15.789 0 011.163-7.193l-2.042-.847z"/></mask><path d="M1.373 11.104a18 18 0 00-1.326 8.2l2.205-.16a15.789 15.789 0 011.163-7.193l-2.042-.847z" stroke="#40AFFE" stroke-width="4" mask="url(#path-3-inside-1_35_1068)"/></svg>